<svg enable-background="new 0 0 1000 1000" viewBox="0 0 1000 1000" xmlns="http://www.w3.org/2000/svg"><path d="m290.8 322.5c22-100.1 111.3-161.5 215.8-138.5 66.8 14.7 117.6 59.8 134.1 126.7 4.2 17-11.2 32.5-28.3 28.7l-29.7-6.5c-8.2-1.8-14.8-7.8-17.5-15.8-10.9-32.6-39.2-55.1-74-62.7-58.7-12.9-111.7 23.6-125.2 84.7-13.5 61.6 19.5 116.5 78.2 129.3 33.2 7.3 68.9-.1 93.4-25.8 5.7-6 14.2-8.5 22.3-6.8l30 6.6c17.1 3.8 24.6 24.2 13.7 37.9-43.1 54.1-108 73.6-174.9 58.9-104.6-22.9-160-116-137.9-216.7z"/><path d="m459.3 664.3 30.1 6.6c9.5 2.1 16.6 10 17.5 19.7 1.6 16.5 12.7 28.4 32 32.6 27.9 6.1 43.9-10.9 48.9-33.8l34.7-157.9c1.2-5.4-2.2-10.7-7.6-11.9l-74.3-16.3c-5.4-1.2-8.8-6.5-7.6-11.9l8.7-39.6c2.3-10.5 12.7-17.2 23.3-14.9l127.2 27.9c11.2 2.5 18.3 13.6 15.9 24.8l-47.2 215.2c-13.2 60.1-56.3 104.9-138.4 86.9-50.1-11-90.9-48.6-90.3-105.7 0-14.2 13.1-24.8 27.1-21.7z"/></svg>